<svg xmlns="http://www.w3.org/2000/svg" viewBox="0 0 325.84 186.33"><defs><style>.cls-1{fill:none;stroke:#fff;stroke-width:0.2px;}</style></defs><g id="Layer_2" data-name="Layer 2"><g id="Layer_1-2" data-name="Layer 1"><path class="cls-1" d="M1.76.1A1.66,1.66,0,1,1,.1,1.76,1.66,1.66,0,0,1,1.76.1Z"/><path class="cls-1" d="M18.73.1a1.66,1.66,0,1,1-1.67,1.66A1.66,1.66,0,0,1,18.73.1Z"/><path class="cls-1" d="M35.69.1A1.66,1.66,0,1,1,34,1.76,1.66,1.66,0,0,1,35.69.1Z"/><path class="cls-1" d="M52.65.1A1.66,1.66,0,1,1,51,1.76,1.66,1.66,0,0,1,52.65.1Z"/><path class="cls-1" d="M69.62.1A1.66,1.66,0,1,1,68,1.76,1.66,1.66,0,0,1,69.62.1Z"/><path class="cls-1" d="M86.58.1a1.66,1.66,0,1,1-1.66,1.66A1.66,1.66,0,0,1,86.58.1Z"/><path class="cls-1" d="M103.55.1a1.66,1.66,0,1,1-1.67,1.66A1.66,1.66,0,0,1,103.55.1Z"/><path class="cls-1" d="M120.51.1a1.66,1.66,0,1,1-1.66,1.66A1.66,1.66,0,0,1,120.51.1Z"/><path class="cls-1" d="M137.47.1a1.66,1.66,0,1,1-1.66,1.66A1.66,1.66,0,0,1,137.47.1Z"/><path class="cls-1" d="M154.44.1a1.66,1.66,0,1,1-1.67,1.66A1.66,1.66,0,0,1,154.44.1Z"/><path class="cls-1" d="M171.4.1a1.66,1.66,0,1,1-1.66,1.66A1.66,1.66,0,0,1,171.4.1Z"/><path class="cls-1" d="M188.36.1a1.66,1.66,0,1,1-1.66,1.66A1.66,1.66,0,0,1,188.36.1Z"/><path class="cls-1" d="M205.33.1a1.66,1.66,0,1,1-1.66,1.66A1.66,1.66,0,0,1,205.33.1Z"/><path class="cls-1" d="M222.29.1a1.66,1.66,0,1,1-1.66,1.66A1.66,1.66,0,0,1,222.29.1Z"/><path class="cls-1" d="M239.26.1a1.66,1.66,0,1,1-1.67,1.66A1.66,1.66,0,0,1,239.26.1Z"/><path class="cls-1" d="M256.22.1a1.66,1.66,0,1,1-1.66,1.66A1.66,1.66,0,0,1,256.22.1Z"/><path class="cls-1" d="M273.18.1a1.66,1.66,0,1,1-1.66,1.66A1.66,1.66,0,0,1,273.18.1Z"/><path class="cls-1" d="M290.15.1a1.66,1.66,0,1,1-1.66,1.66A1.66,1.66,0,0,1,290.15.1Z"/><path class="cls-1" d="M307.11.1a1.66,1.66,0,1,1-1.66,1.66A1.66,1.66,0,0,1,307.11.1Z"/><path class="cls-1" d="M324.08.1a1.66,1.66,0,1,1-1.67,1.66A1.66,1.66,0,0,1,324.08.1Z"/><path class="cls-1" d="M1.76,16.72A1.66,1.66,0,1,1,.1,18.38,1.66,1.66,0,0,1,1.76,16.72Z"/><path class="cls-1" d="M18.73,16.72a1.66,1.66,0,1,1-1.67,1.66A1.66,1.66,0,0,1,18.73,16.72Z"/><path class="cls-1" d="M35.69,16.72A1.66,1.66,0,1,1,34,18.38,1.66,1.66,0,0,1,35.69,16.72Z"/><path class="cls-1" d="M52.65,16.72A1.66,1.66,0,1,1,51,18.38,1.66,1.66,0,0,1,52.65,16.72Z"/><path class="cls-1" d="M69.62,16.72A1.66,1.66,0,1,1,68,18.38,1.66,1.66,0,0,1,69.62,16.72Z"/><path class="cls-1" d="M86.58,16.72a1.66,1.66,0,1,1-1.66,1.66A1.66,1.66,0,0,1,86.58,16.72Z"/><path class="cls-1" d="M103.55,16.72a1.66,1.66,0,1,1-1.67,1.66A1.66,1.66,0,0,1,103.55,16.72Z"/><path class="cls-1" d="M120.51,16.72a1.66,1.66,0,1,1-1.66,1.66A1.66,1.66,0,0,1,120.51,16.72Z"/><path class="cls-1" d="M137.47,16.72a1.66,1.66,0,1,1-1.66,1.66A1.66,1.66,0,0,1,137.47,16.72Z"/><path class="cls-1" d="M154.44,16.72a1.66,1.66,0,1,1-1.67,1.66A1.66,1.66,0,0,1,154.44,16.72Z"/><path class="cls-1" d="M171.4,16.72a1.66,1.66,0,1,1-1.66,1.66A1.66,1.66,0,0,1,171.4,16.72Z"/><path class="cls-1" d="M188.36,16.72a1.66,1.66,0,1,1-1.66,1.66A1.66,1.66,0,0,1,188.36,16.72Z"/><path class="cls-1" d="M205.33,16.72a1.66,1.66,0,1,1-1.66,1.66A1.66,1.66,0,0,1,205.33,16.72Z"/><path class="cls-1" d="M222.29,16.72a1.66,1.66,0,1,1-1.66,1.66A1.66,1.66,0,0,1,222.29,16.72Z"/><path class="cls-1" d="M239.26,16.72a1.66,1.66,0,1,1-1.67,1.66A1.66,1.66,0,0,1,239.26,16.72Z"/><path class="cls-1" d="M256.22,16.72a1.66,1.66,0,1,1-1.66,1.66A1.66,1.66,0,0,1,256.22,16.72Z"/><path class="cls-1" d="M273.18,16.72a1.66,1.66,0,1,1-1.66,1.66A1.66,1.66,0,0,1,273.18,16.72Z"/><path class="cls-1" d="M290.15,16.72a1.66,1.66,0,1,1-1.66,1.66A1.66,1.66,0,0,1,290.15,16.72Z"/><path class="cls-1" d="M307.11,16.72a1.66,1.66,0,1,1-1.66,1.66A1.66,1.66,0,0,1,307.11,16.72Z"/><path class="cls-1" d="M324.08,16.72a1.66,1.66,0,1,1-1.67,1.66A1.66,1.66,0,0,1,324.08,16.72Z"/><path class="cls-1" d="M1.76,33.34A1.66,1.66,0,1,1,.1,35,1.66,1.66,0,0,1,1.76,33.34Z"/><path class="cls-1" d="M18.73,33.34A1.66,1.66,0,1,1,17.06,35,1.66,1.66,0,0,1,18.73,33.34Z"/><path class="cls-1" d="M35.69,33.34A1.66,1.66,0,1,1,34,35,1.66,1.66,0,0,1,35.69,33.34Z"/><path class="cls-1" d="M52.65,33.34A1.66,1.66,0,1,1,51,35,1.66,1.66,0,0,1,52.65,33.34Z"/><path class="cls-1" d="M69.62,33.34A1.66,1.66,0,1,1,68,35,1.66,1.66,0,0,1,69.62,33.34Z"/><path class="cls-1" d="M86.58,33.34A1.66,1.66,0,1,1,84.92,35,1.66,1.66,0,0,1,86.58,33.34Z"/><path class="cls-1" d="M103.55,33.34A1.66,1.66,0,1,1,101.88,35,1.66,1.66,0,0,1,103.55,33.34Z"/><path class="cls-1" d="M120.51,33.34A1.66,1.66,0,1,1,118.85,35,1.66,1.66,0,0,1,120.51,33.34Z"/><path class="cls-1" d="M137.47,33.34A1.66,1.66,0,1,1,135.81,35,1.66,1.66,0,0,1,137.47,33.34Z"/><path class="cls-1" d="M154.44,33.34A1.66,1.66,0,1,1,152.77,35,1.66,1.66,0,0,1,154.44,33.34Z"/><path class="cls-1" d="M171.4,33.34A1.66,1.66,0,1,1,169.74,35,1.66,1.66,0,0,1,171.4,33.34Z"/><path class="cls-1" d="M188.36,33.34A1.66,1.66,0,1,1,186.7,35,1.66,1.66,0,0,1,188.36,33.34Z"/><path class="cls-1" d="M205.33,33.34A1.66,1.66,0,1,1,203.67,35,1.66,1.66,0,0,1,205.33,33.34Z"/><path class="cls-1" d="M222.29,33.34A1.66,1.66,0,1,1,220.63,35,1.66,1.66,0,0,1,222.29,33.34Z"/><path class="cls-1" d="M239.26,33.34A1.66,1.66,0,1,1,237.59,35,1.66,1.66,0,0,1,239.26,33.34Z"/><path class="cls-1" d="M256.22,33.34A1.66,1.66,0,1,1,254.56,35,1.66,1.66,0,0,1,256.22,33.34Z"/><path class="cls-1" d="M273.18,33.34A1.66,1.66,0,1,1,271.52,35,1.66,1.66,0,0,1,273.18,33.34Z"/><path class="cls-1" d="M290.15,33.34A1.66,1.66,0,1,1,288.49,35,1.66,1.66,0,0,1,290.15,33.34Z"/><path class="cls-1" d="M307.11,33.34A1.66,1.66,0,1,1,305.45,35,1.66,1.66,0,0,1,307.11,33.34Z"/><path class="cls-1" d="M324.08,33.34A1.66,1.66,0,1,1,322.41,35,1.66,1.66,0,0,1,324.08,33.34Z"/><path class="cls-1" d="M1.76,50A1.66,1.66,0,1,1,.1,51.62,1.66,1.66,0,0,1,1.76,50Z"/><path class="cls-1" d="M18.73,50a1.66,1.66,0,1,1-1.67,1.66A1.66,1.66,0,0,1,18.73,50Z"/><path class="cls-1" d="M35.69,50A1.66,1.66,0,1,1,34,51.62,1.66,1.66,0,0,1,35.69,50Z"/><path class="cls-1" d="M52.65,50A1.66,1.66,0,1,1,51,51.62,1.66,1.66,0,0,1,52.65,50Z"/><path class="cls-1" d="M69.62,50A1.66,1.66,0,1,1,68,51.62,1.66,1.66,0,0,1,69.62,50Z"/><path class="cls-1" d="M86.58,50a1.66,1.66,0,1,1-1.66,1.66A1.66,1.66,0,0,1,86.58,50Z"/><path class="cls-1" d="M103.55,50a1.66,1.66,0,1,1-1.67,1.66A1.66,1.66,0,0,1,103.55,50Z"/><path class="cls-1" d="M120.51,50a1.66,1.66,0,1,1-1.66,1.66A1.66,1.66,0,0,1,120.51,50Z"/><path class="cls-1" d="M137.47,50a1.66,1.66,0,1,1-1.66,1.66A1.66,1.66,0,0,1,137.47,50Z"/><path class="cls-1" d="M154.44,50a1.66,1.66,0,1,1-1.67,1.66A1.66,1.66,0,0,1,154.44,50Z"/><path class="cls-1" d="M171.4,50a1.66,1.66,0,1,1-1.66,1.66A1.66,1.66,0,0,1,171.4,50Z"/><path class="cls-1" d="M188.36,50a1.66,1.66,0,1,1-1.66,1.66A1.66,1.66,0,0,1,188.36,50Z"/><path class="cls-1" d="M205.33,50a1.66,1.66,0,1,1-1.66,1.66A1.66,1.66,0,0,1,205.33,50Z"/><path class="cls-1" d="M222.29,50a1.66,1.66,0,1,1-1.66,1.66A1.66,1.66,0,0,1,222.29,50Z"/><path class="cls-1" d="M239.26,50a1.66,1.66,0,1,1-1.67,1.66A1.66,1.66,0,0,1,239.26,50Z"/><path class="cls-1" d="M256.22,50a1.66,1.66,0,1,1-1.66,1.66A1.66,1.66,0,0,1,256.22,50Z"/><path class="cls-1" d="M273.18,50a1.66,1.66,0,1,1-1.66,1.66A1.66,1.66,0,0,1,273.18,50Z"/><path class="cls-1" d="M290.15,50a1.66,1.66,0,1,1-1.66,1.66A1.66,1.66,0,0,1,290.15,50Z"/><path class="cls-1" d="M307.11,50a1.66,1.66,0,1,1-1.66,1.66A1.66,1.66,0,0,1,307.11,50Z"/><path class="cls-1" d="M324.08,50a1.66,1.66,0,1,1-1.67,1.66A1.66,1.66,0,0,1,324.08,50Z"/><path class="cls-1" d="M1.76,66.58A1.66,1.66,0,1,1,.1,68.24,1.66,1.66,0,0,1,1.76,66.58Z"/><path class="cls-1" d="M18.73,66.58a1.66,1.66,0,1,1-1.67,1.66A1.66,1.66,0,0,1,18.73,66.58Z"/><path class="cls-1" d="M35.69,66.58A1.66,1.66,0,1,1,34,68.24,1.66,1.66,0,0,1,35.69,66.58Z"/><path class="cls-1" d="M52.65,66.58A1.66,1.66,0,1,1,51,68.24,1.66,1.66,0,0,1,52.65,66.58Z"/><path class="cls-1" d="M69.62,66.58A1.66,1.66,0,1,1,68,68.24,1.66,1.66,0,0,1,69.62,66.58Z"/><path class="cls-1" d="M86.58,66.58a1.66,1.66,0,1,1-1.66,1.66A1.66,1.66,0,0,1,86.58,66.58Z"/><path class="cls-1" d="M103.55,66.58a1.66,1.66,0,1,1-1.67,1.66A1.66,1.66,0,0,1,103.55,66.58Z"/><path class="cls-1" d="M120.51,66.58a1.66,1.66,0,1,1-1.66,1.66A1.66,1.66,0,0,1,120.51,66.58Z"/><path class="cls-1" d="M137.47,66.58a1.66,1.66,0,1,1-1.66,1.66A1.66,1.66,0,0,1,137.47,66.58Z"/><path class="cls-1" d="M154.44,66.58a1.66,1.66,0,1,1-1.67,1.66A1.66,1.66,0,0,1,154.44,66.58Z"/><path class="cls-1" d="M171.4,66.58a1.66,1.66,0,1,1-1.66,1.66A1.66,1.66,0,0,1,171.4,66.58Z"/><path class="cls-1" d="M188.36,66.58a1.66,1.66,0,1,1-1.66,1.66A1.66,1.66,0,0,1,188.36,66.58Z"/><path class="cls-1" d="M205.33,66.58a1.66,1.66,0,1,1-1.66,1.66A1.66,1.66,0,0,1,205.33,66.58Z"/><path class="cls-1" d="M222.29,66.58a1.66,1.66,0,1,1-1.66,1.66A1.66,1.66,0,0,1,222.29,66.58Z"/><path class="cls-1" d="M239.26,66.58a1.66,1.66,0,1,1-1.67,1.66A1.66,1.66,0,0,1,239.26,66.58Z"/><path class="cls-1" d="M256.22,66.58a1.66,1.66,0,1,1-1.66,1.66A1.66,1.66,0,0,1,256.22,66.58Z"/><path class="cls-1" d="M273.18,66.58a1.66,1.66,0,1,1-1.66,1.66A1.66,1.66,0,0,1,273.18,66.58Z"/><path class="cls-1" d="M290.15,66.58a1.66,1.66,0,1,1-1.66,1.66A1.66,1.66,0,0,1,290.15,66.58Z"/><path class="cls-1" d="M307.11,66.58a1.66,1.66,0,1,1-1.66,1.66A1.66,1.66,0,0,1,307.11,66.58Z"/><path class="cls-1" d="M324.08,66.58a1.66,1.66,0,1,1-1.67,1.66A1.66,1.66,0,0,1,324.08,66.58Z"/><path class="cls-1" d="M1.76,83.19A1.67,1.67,0,1,1,.1,84.86,1.66,1.66,0,0,1,1.76,83.19Z"/><path class="cls-1" d="M18.73,83.19a1.67,1.67,0,1,1-1.67,1.67A1.67,1.67,0,0,1,18.73,83.19Z"/><path class="cls-1" d="M35.69,83.19A1.67,1.67,0,1,1,34,84.86,1.66,1.66,0,0,1,35.69,83.19Z"/><path class="cls-1" d="M52.65,83.19A1.67,1.67,0,1,1,51,84.86,1.67,1.67,0,0,1,52.65,83.19Z"/><path class="cls-1" d="M69.62,83.19A1.67,1.67,0,1,1,68,84.86,1.66,1.66,0,0,1,69.62,83.19Z"/><path class="cls-1" d="M86.58,83.19a1.67,1.67,0,1,1-1.66,1.67A1.66,1.66,0,0,1,86.58,83.19Z"/><path class="cls-1" d="M103.55,83.19a1.67,1.67,0,1,1-1.67,1.67A1.67,1.67,0,0,1,103.55,83.19Z"/><path class="cls-1" d="M120.51,83.19a1.67,1.67,0,1,1-1.66,1.67A1.66,1.66,0,0,1,120.51,83.19Z"/><path class="cls-1" d="M137.47,83.19a1.67,1.67,0,1,1-1.66,1.67A1.66,1.66,0,0,1,137.47,83.19Z"/><path class="cls-1" d="M154.44,83.19a1.67,1.67,0,1,1-1.67,1.67A1.67,1.67,0,0,1,154.44,83.19Z"/><path class="cls-1" d="M171.4,83.19a1.67,1.67,0,1,1-1.66,1.67A1.66,1.66,0,0,1,171.4,83.19Z"/><path class="cls-1" d="M188.36,83.19a1.67,1.67,0,1,1-1.66,1.67A1.67,1.67,0,0,1,188.36,83.19Z"/><path class="cls-1" d="M205.33,83.19a1.67,1.67,0,1,1-1.66,1.67A1.66,1.66,0,0,1,205.33,83.19Z"/><path class="cls-1" d="M222.29,83.19a1.67,1.67,0,1,1-1.66,1.67A1.66,1.66,0,0,1,222.29,83.19Z"/><path class="cls-1" d="M239.26,83.19a1.67,1.67,0,1,1-1.67,1.67A1.67,1.67,0,0,1,239.26,83.19Z"/><path class="cls-1" d="M256.22,83.19a1.67,1.67,0,1,1-1.66,1.67A1.66,1.66,0,0,1,256.22,83.19Z"/><path class="cls-1" d="M273.18,83.19a1.67,1.67,0,1,1-1.66,1.67A1.67,1.67,0,0,1,273.18,83.19Z"/><path class="cls-1" d="M290.15,83.19a1.67,1.67,0,1,1-1.66,1.67A1.66,1.66,0,0,1,290.15,83.19Z"/><path class="cls-1" d="M307.11,83.19a1.67,1.67,0,1,1-1.66,1.67A1.66,1.66,0,0,1,307.11,83.19Z"/><path class="cls-1" d="M324.08,83.19a1.67,1.67,0,1,1-1.67,1.67A1.67,1.67,0,0,1,324.08,83.19Z"/><path class="cls-1" d="M1.76,99.81A1.67,1.67,0,1,1,.1,101.48,1.66,1.66,0,0,1,1.76,99.81Z"/><path class="cls-1" d="M18.73,99.81a1.67,1.67,0,1,1-1.67,1.67A1.67,1.67,0,0,1,18.73,99.81Z"/><path class="cls-1" d="M35.69,99.81A1.67,1.67,0,1,1,34,101.48,1.66,1.66,0,0,1,35.69,99.81Z"/><path class="cls-1" d="M52.65,99.81A1.67,1.67,0,1,1,51,101.48,1.67,1.67,0,0,1,52.65,99.81Z"/><path class="cls-1" d="M69.62,99.81A1.67,1.67,0,1,1,68,101.48,1.66,1.66,0,0,1,69.62,99.81Z"/><path class="cls-1" d="M86.58,99.81a1.67,1.67,0,1,1-1.66,1.67A1.66,1.66,0,0,1,86.58,99.81Z"/><path class="cls-1" d="M103.55,99.81a1.67,1.67,0,1,1-1.67,1.67A1.67,1.67,0,0,1,103.55,99.81Z"/><path class="cls-1" d="M120.51,99.81a1.67,1.67,0,1,1-1.66,1.67A1.66,1.66,0,0,1,120.51,99.81Z"/><path class="cls-1" d="M137.47,99.81a1.67,1.67,0,1,1-1.66,1.67A1.66,1.66,0,0,1,137.47,99.81Z"/><path class="cls-1" d="M154.44,99.81a1.67,1.67,0,1,1-1.67,1.67A1.67,1.67,0,0,1,154.44,99.81Z"/><path class="cls-1" d="M171.4,99.81a1.67,1.67,0,1,1-1.66,1.67A1.66,1.66,0,0,1,171.4,99.81Z"/><path class="cls-1" d="M188.36,99.81a1.67,1.67,0,1,1-1.66,1.67A1.67,1.67,0,0,1,188.36,99.81Z"/><path class="cls-1" d="M205.33,99.81a1.67,1.67,0,1,1-1.66,1.67A1.66,1.66,0,0,1,205.33,99.81Z"/><path class="cls-1" d="M222.29,99.81a1.67,1.67,0,1,1-1.66,1.67A1.66,1.66,0,0,1,222.29,99.81Z"/><path class="cls-1" d="M239.26,99.81a1.67,1.67,0,1,1-1.67,1.67A1.67,1.67,0,0,1,239.26,99.81Z"/><path class="cls-1" d="M256.22,99.81a1.67,1.67,0,1,1-1.66,1.67A1.66,1.66,0,0,1,256.22,99.81Z"/><path class="cls-1" d="M273.18,99.81a1.67,1.67,0,1,1-1.66,1.67A1.67,1.67,0,0,1,273.18,99.81Z"/><path class="cls-1" d="M290.15,99.81a1.67,1.67,0,1,1-1.66,1.67A1.66,1.66,0,0,1,290.15,99.81Z"/><path class="cls-1" d="M307.11,99.81a1.67,1.67,0,1,1-1.66,1.67A1.66,1.66,0,0,1,307.11,99.81Z"/><path class="cls-1" d="M324.08,99.81a1.67,1.67,0,1,1-1.67,1.67A1.67,1.67,0,0,1,324.08,99.81Z"/><path class="cls-1" d="M1.76,116.43A1.67,1.67,0,1,1,.1,118.09,1.66,1.66,0,0,1,1.76,116.43Z"/><path class="cls-1" d="M18.73,116.43a1.67,1.67,0,1,1-1.67,1.66A1.67,1.67,0,0,1,18.73,116.43Z"/><path class="cls-1" d="M35.69,116.43A1.67,1.67,0,1,1,34,118.09,1.66,1.66,0,0,1,35.69,116.43Z"/><path class="cls-1" d="M52.65,116.43A1.67,1.67,0,1,1,51,118.09,1.67,1.67,0,0,1,52.65,116.43Z"/><path class="cls-1" d="M69.62,116.43A1.67,1.67,0,1,1,68,118.09,1.66,1.66,0,0,1,69.62,116.43Z"/><path class="cls-1" d="M86.58,116.43a1.67,1.67,0,1,1-1.66,1.66A1.66,1.66,0,0,1,86.58,116.43Z"/><path class="cls-1" d="M103.55,116.43a1.67,1.67,0,1,1-1.67,1.66A1.67,1.67,0,0,1,103.55,116.43Z"/><path class="cls-1" d="M120.51,116.43a1.67,1.67,0,1,1-1.66,1.66A1.66,1.66,0,0,1,120.51,116.43Z"/><path class="cls-1" d="M137.47,116.43a1.67,1.67,0,1,1-1.66,1.66A1.66,1.66,0,0,1,137.47,116.43Z"/><path class="cls-1" d="M154.44,116.43a1.67,1.67,0,1,1-1.67,1.66A1.67,1.67,0,0,1,154.44,116.43Z"/><path class="cls-1" d="M171.4,116.43a1.67,1.67,0,1,1-1.66,1.66A1.66,1.66,0,0,1,171.4,116.43Z"/><path class="cls-1" d="M188.36,116.43a1.67,1.67,0,1,1-1.66,1.66A1.67,1.67,0,0,1,188.36,116.43Z"/><path class="cls-1" d="M205.33,116.43a1.67,1.67,0,1,1-1.66,1.66A1.66,1.66,0,0,1,205.33,116.43Z"/><path class="cls-1" d="M222.29,116.43a1.67,1.67,0,1,1-1.66,1.66A1.66,1.66,0,0,1,222.29,116.43Z"/><path class="cls-1" d="M239.26,116.43a1.67,1.67,0,1,1-1.67,1.66A1.67,1.67,0,0,1,239.26,116.43Z"/><path class="cls-1" d="M256.22,116.43a1.67,1.67,0,1,1-1.66,1.66A1.66,1.66,0,0,1,256.22,116.43Z"/><path class="cls-1" d="M273.18,116.43a1.67,1.67,0,1,1-1.66,1.66A1.67,1.67,0,0,1,273.18,116.43Z"/><path class="cls-1" d="M290.15,116.43a1.67,1.67,0,1,1-1.66,1.66A1.66,1.66,0,0,1,290.15,116.43Z"/><path class="cls-1" d="M307.11,116.43a1.67,1.67,0,1,1-1.66,1.66A1.66,1.66,0,0,1,307.11,116.43Z"/><path class="cls-1" d="M324.08,116.43a1.67,1.67,0,1,1-1.67,1.66A1.67,1.67,0,0,1,324.08,116.43Z"/><path class="cls-1" d="M1.76,133.05A1.67,1.67,0,1,1,.1,134.71,1.66,1.66,0,0,1,1.76,133.05Z"/><path class="cls-1" d="M18.73,133.05a1.67,1.67,0,1,1-1.67,1.66A1.67,1.67,0,0,1,18.73,133.05Z"/><path class="cls-1" d="M35.69,133.05A1.67,1.67,0,1,1,34,134.71,1.66,1.66,0,0,1,35.69,133.05Z"/><path class="cls-1" d="M52.65,133.05A1.67,1.67,0,1,1,51,134.71,1.67,1.67,0,0,1,52.65,133.05Z"/><path class="cls-1" d="M69.62,133.05A1.67,1.67,0,1,1,68,134.71,1.66,1.66,0,0,1,69.62,133.05Z"/><path class="cls-1" d="M86.58,133.05a1.67,1.67,0,1,1-1.66,1.66A1.66,1.66,0,0,1,86.58,133.05Z"/><path class="cls-1" d="M103.55,133.05a1.67,1.67,0,1,1-1.67,1.66A1.67,1.67,0,0,1,103.55,133.05Z"/><path class="cls-1" d="M120.51,133.05a1.67,1.67,0,1,1-1.66,1.66A1.66,1.66,0,0,1,120.51,133.05Z"/><path class="cls-1" d="M137.47,133.05a1.67,1.67,0,1,1-1.66,1.66A1.66,1.66,0,0,1,137.47,133.05Z"/><path class="cls-1" d="M154.44,133.05a1.67,1.67,0,1,1-1.67,1.66A1.67,1.67,0,0,1,154.44,133.05Z"/><path class="cls-1" d="M171.4,133.05a1.67,1.67,0,1,1-1.66,1.66A1.66,1.66,0,0,1,171.4,133.05Z"/><path class="cls-1" d="M188.36,133.05a1.67,1.67,0,1,1-1.66,1.66A1.67,1.67,0,0,1,188.36,133.05Z"/><path class="cls-1" d="M205.33,133.05a1.67,1.67,0,1,1-1.66,1.66A1.66,1.66,0,0,1,205.33,133.05Z"/><path class="cls-1" d="M222.29,133.05a1.67,1.67,0,1,1-1.66,1.66A1.66,1.66,0,0,1,222.29,133.05Z"/><path class="cls-1" d="M239.26,133.05a1.67,1.67,0,1,1-1.67,1.66A1.67,1.67,0,0,1,239.26,133.05Z"/><path class="cls-1" d="M256.22,133.05a1.67,1.67,0,1,1-1.66,1.66A1.66,1.66,0,0,1,256.22,133.05Z"/><path class="cls-1" d="M273.18,133.05a1.67,1.67,0,1,1-1.66,1.66A1.67,1.67,0,0,1,273.18,133.05Z"/><path class="cls-1" d="M290.15,133.05a1.67,1.67,0,1,1-1.66,1.66A1.66,1.66,0,0,1,290.15,133.05Z"/><path class="cls-1" d="M307.11,133.05a1.67,1.67,0,1,1-1.66,1.66A1.66,1.66,0,0,1,307.11,133.05Z"/><path class="cls-1" d="M324.08,133.05a1.67,1.67,0,1,1-1.67,1.66A1.67,1.67,0,0,1,324.08,133.05Z"/><path class="cls-1" d="M1.76,149.67A1.66,1.66,0,1,1,.1,151.33,1.66,1.66,0,0,1,1.76,149.67Z"/><path class="cls-1" d="M18.73,149.67a1.66,1.66,0,1,1-1.67,1.66A1.66,1.66,0,0,1,18.73,149.67Z"/><path class="cls-1" d="M35.69,149.67A1.66,1.66,0,1,1,34,151.33,1.66,1.66,0,0,1,35.69,149.67Z"/><path class="cls-1" d="M52.65,149.67A1.66,1.66,0,1,1,51,151.33,1.66,1.66,0,0,1,52.65,149.67Z"/><path class="cls-1" d="M69.62,149.67A1.66,1.66,0,1,1,68,151.33,1.66,1.66,0,0,1,69.62,149.67Z"/><path class="cls-1" d="M86.58,149.67a1.66,1.66,0,1,1-1.66,1.66A1.66,1.66,0,0,1,86.58,149.67Z"/><path class="cls-1" d="M103.55,149.67a1.66,1.66,0,1,1-1.67,1.66A1.66,1.66,0,0,1,103.55,149.67Z"/><path class="cls-1" d="M120.51,149.67a1.66,1.66,0,1,1-1.66,1.66A1.66,1.66,0,0,1,120.51,149.67Z"/><path class="cls-1" d="M137.47,149.67a1.66,1.66,0,1,1-1.66,1.66A1.66,1.66,0,0,1,137.47,149.67Z"/><path class="cls-1" d="M154.44,149.67a1.66,1.66,0,1,1-1.67,1.66A1.66,1.66,0,0,1,154.44,149.67Z"/><path class="cls-1" d="M171.4,149.67a1.66,1.66,0,1,1-1.66,1.66A1.66,1.66,0,0,1,171.4,149.67Z"/><path class="cls-1" d="M188.36,149.67a1.66,1.66,0,1,1-1.66,1.66A1.66,1.66,0,0,1,188.36,149.67Z"/><path class="cls-1" d="M205.33,149.67a1.66,1.66,0,1,1-1.66,1.66A1.66,1.66,0,0,1,205.33,149.67Z"/><path class="cls-1" d="M222.29,149.67a1.66,1.66,0,1,1-1.66,1.66A1.66,1.66,0,0,1,222.29,149.67Z"/><path class="cls-1" d="M239.26,149.67a1.66,1.66,0,1,1-1.67,1.66A1.66,1.66,0,0,1,239.26,149.67Z"/><path class="cls-1" d="M256.22,149.67a1.66,1.66,0,1,1-1.66,1.66A1.66,1.66,0,0,1,256.22,149.67Z"/><path class="cls-1" d="M273.18,149.67a1.66,1.66,0,1,1-1.66,1.66A1.66,1.66,0,0,1,273.18,149.67Z"/><path class="cls-1" d="M290.15,149.67a1.66,1.66,0,1,1-1.66,1.66A1.66,1.66,0,0,1,290.15,149.67Z"/><path class="cls-1" d="M307.11,149.67a1.66,1.66,0,1,1-1.66,1.66A1.66,1.66,0,0,1,307.11,149.67Z"/><path class="cls-1" d="M324.08,149.67a1.66,1.66,0,1,1-1.67,1.66A1.66,1.66,0,0,1,324.08,149.67Z"/><path class="cls-1" d="M1.76,166.29A1.66,1.66,0,1,1,.1,168,1.66,1.66,0,0,1,1.76,166.29Z"/><path class="cls-1" d="M18.73,166.29A1.66,1.66,0,1,1,17.06,168,1.66,1.66,0,0,1,18.73,166.29Z"/><path class="cls-1" d="M35.69,166.29A1.66,1.66,0,1,1,34,168,1.66,1.66,0,0,1,35.69,166.29Z"/><path class="cls-1" d="M52.65,166.29A1.66,1.66,0,1,1,51,168,1.66,1.66,0,0,1,52.65,166.29Z"/><path class="cls-1" d="M69.62,166.29A1.66,1.66,0,1,1,68,168,1.66,1.66,0,0,1,69.62,166.29Z"/><path class="cls-1" d="M86.58,166.29A1.66,1.66,0,1,1,84.92,168,1.66,1.66,0,0,1,86.58,166.29Z"/><path class="cls-1" d="M103.55,166.29a1.66,1.66,0,1,1-1.67,1.66A1.66,1.66,0,0,1,103.55,166.29Z"/><path class="cls-1" d="M120.51,166.29a1.66,1.66,0,1,1-1.66,1.66A1.66,1.66,0,0,1,120.51,166.29Z"/><path class="cls-1" d="M137.47,166.29a1.66,1.66,0,1,1-1.66,1.66A1.66,1.66,0,0,1,137.47,166.29Z"/><path class="cls-1" d="M154.44,166.29a1.66,1.66,0,1,1-1.67,1.66A1.66,1.66,0,0,1,154.44,166.29Z"/><path class="cls-1" d="M171.4,166.29a1.66,1.66,0,1,1-1.66,1.66A1.66,1.66,0,0,1,171.4,166.29Z"/><path class="cls-1" d="M188.36,166.29A1.66,1.66,0,1,1,186.7,168,1.66,1.66,0,0,1,188.36,166.29Z"/><path class="cls-1" d="M205.33,166.29a1.66,1.66,0,1,1-1.66,1.66A1.66,1.66,0,0,1,205.33,166.29Z"/><path class="cls-1" d="M222.29,166.29a1.66,1.66,0,1,1-1.66,1.66A1.66,1.66,0,0,1,222.29,166.29Z"/><path class="cls-1" d="M239.26,166.29a1.66,1.66,0,1,1-1.67,1.66A1.66,1.66,0,0,1,239.26,166.29Z"/><path class="cls-1" d="M256.22,166.29a1.66,1.66,0,1,1-1.66,1.66A1.66,1.66,0,0,1,256.22,166.29Z"/><path class="cls-1" d="M273.18,166.29a1.66,1.66,0,1,1-1.66,1.66A1.66,1.66,0,0,1,273.18,166.29Z"/><path class="cls-1" d="M290.15,166.29a1.66,1.66,0,1,1-1.66,1.66A1.66,1.66,0,0,1,290.15,166.29Z"/><path class="cls-1" d="M307.11,166.29a1.66,1.66,0,1,1-1.66,1.66A1.66,1.66,0,0,1,307.11,166.29Z"/><path class="cls-1" d="M324.08,166.29a1.66,1.66,0,1,1-1.67,1.66A1.66,1.66,0,0,1,324.08,166.29Z"/><path class="cls-1" d="M1.76,182.91A1.66,1.66,0,1,1,.1,184.57,1.66,1.66,0,0,1,1.76,182.91Z"/><path class="cls-1" d="M18.73,182.91a1.66,1.66,0,1,1-1.67,1.66A1.66,1.66,0,0,1,18.73,182.91Z"/><path class="cls-1" d="M35.69,182.91A1.66,1.66,0,1,1,34,184.57,1.66,1.66,0,0,1,35.69,182.91Z"/><path class="cls-1" d="M52.65,182.91A1.66,1.66,0,1,1,51,184.57,1.66,1.66,0,0,1,52.65,182.91Z"/><path class="cls-1" d="M69.62,182.91A1.66,1.66,0,1,1,68,184.57,1.66,1.66,0,0,1,69.62,182.91Z"/><path class="cls-1" d="M86.58,182.91a1.66,1.66,0,1,1-1.66,1.66A1.66,1.66,0,0,1,86.58,182.91Z"/><path class="cls-1" d="M103.55,182.91a1.66,1.66,0,1,1-1.67,1.66A1.66,1.66,0,0,1,103.55,182.91Z"/><path class="cls-1" d="M120.51,182.91a1.66,1.66,0,1,1-1.66,1.66A1.66,1.66,0,0,1,120.51,182.91Z"/><path class="cls-1" d="M137.47,182.91a1.66,1.66,0,1,1-1.66,1.66A1.66,1.66,0,0,1,137.47,182.91Z"/><path class="cls-1" d="M154.44,182.91a1.66,1.66,0,1,1-1.67,1.66A1.66,1.66,0,0,1,154.44,182.91Z"/><path class="cls-1" d="M171.4,182.91a1.66,1.66,0,1,1-1.66,1.66A1.66,1.66,0,0,1,171.4,182.91Z"/><path class="cls-1" d="M188.36,182.91a1.66,1.66,0,1,1-1.66,1.66A1.66,1.66,0,0,1,188.36,182.91Z"/><path class="cls-1" d="M205.33,182.91a1.66,1.66,0,1,1-1.66,1.66A1.66,1.66,0,0,1,205.33,182.91Z"/><path class="cls-1" d="M222.29,182.91a1.66,1.66,0,1,1-1.66,1.66A1.66,1.66,0,0,1,222.29,182.91Z"/><path class="cls-1" d="M239.26,182.91a1.66,1.66,0,1,1-1.67,1.66A1.66,1.66,0,0,1,239.26,182.91Z"/><path class="cls-1" d="M256.22,182.91a1.66,1.66,0,1,1-1.66,1.66A1.66,1.66,0,0,1,256.22,182.91Z"/><path class="cls-1" d="M273.18,182.91a1.66,1.66,0,1,1-1.66,1.66A1.66,1.66,0,0,1,273.18,182.91Z"/><path class="cls-1" d="M290.15,182.91a1.66,1.66,0,1,1-1.66,1.66A1.66,1.66,0,0,1,290.15,182.91Z"/><path class="cls-1" d="M307.11,182.91a1.66,1.66,0,1,1-1.66,1.66A1.66,1.66,0,0,1,307.11,182.91Z"/><path class="cls-1" d="M324.08,182.91a1.66,1.66,0,1,1-1.67,1.66A1.66,1.66,0,0,1,324.08,182.91Z"/></g></g></svg>