<svg xmlns="http://www.w3.org/2000/svg" viewBox="0 0 78.19 78.21"><defs><style>.cls-1{fill:#ffd43e;}</style></defs><g id="Layer_2" data-name="Layer 2"><g id="Layer_1-2" data-name="Layer 1"><path class="cls-1" d="M39.13,0A39.12,39.12,0,0,0,8.31,63.23L17.1,31.84V18.61h0c-1.32,0-2.39-.64-2.39-1.43s1.07-1.44,2.39-1.44H27.23V33.5L16.71,71.14a39,39,0,0,0,22.43,7.07,40.1,40.1,0,0,0,6-.46L32.79,33.5V15.74H42.93c1.32,0,2.39.64,2.39,1.44s-1.07,1.43-2.39,1.43h0V31.79L55,74.86A39.13,39.13,0,0,0,39.13,0Z"/></g></g></svg>