<svg xmlns="http://www.w3.org/2000/svg" viewBox="0 0 520.74 158.03"><defs><style>.cls-1{fill:#231f20;}.cls-2{fill:#ffd43e;}</style></defs><g id="Layer_2" data-name="Layer 2"><g id="Layer_1-2" data-name="Layer 1"><path class="cls-1" d="M279.66,88.17v24.28c0,30-14.49,45.58-40,45.58-14.91,0-25.77-5.53-34.51-17.89l-.85,15.34H182.54V0h25.55V56.44c8.31-9.8,18.32-14.06,31.53-14.06C265.17,42.38,279.66,58.14,279.66,88.17Zm-25.56.22c0-16.83-7-24.71-19.38-24.71-11.93,0-20.87,7.24-26.63,20.66v31.74c5.76,13.41,14.91,20.65,26.63,20.65,12.35,0,19.38-8.09,19.38-24.7Z"/><path class="cls-1" d="M391,83.92v71.56H369.31L368.46,141c-8.3,11.29-19.81,17-35.35,17C311,158,297.33,145.68,297.33,124c0-22.79,14.69-35.36,44.72-35.36h23.43V83.7c0-14.06-6.18-20.66-20.23-20.66-13,0-19.6,5.54-20,16H300.52c1.71-24.28,16.61-36.64,45.79-36.64C376.56,42.38,391,55.59,391,83.92Zm-25.56,36.84V106.92h-20c-16.4,0-22.79,5.32-22.79,15.54,0,9.59,5.75,14.91,16.83,14.91C351.21,137.37,359.94,131.62,365.48,120.76Z"/><path class="cls-1" d="M474.74,134.82v20.66H454.29C432.35,155.48,423,145,423,120.12V64.75H405.52V44.94h17.89l1.7-28.33h23.43V44.94h24.92V64.75H448.54v54.52c0,12.14,3,15.55,13.63,15.55Z"/><path class="cls-1" d="M495.18,0h25.56V155.48H495.18Z"/><path class="cls-2" d="M69.45,16.77A69.43,69.43,0,0,0,14.75,129L30.36,73.28V49.89h0c-2.34,0-4.24-1.14-4.24-2.55S28,44.8,30.32,44.8h18l0,31.52-18.68,66.8a69.11,69.11,0,0,0,39.8,12.56,70,70,0,0,0,10.71-.83l-22-78.53V44.8h18c2.34,0,4.24,1.14,4.24,2.54s-1.9,2.55-4.24,2.55h0V73.28l21.41,76.44A69.45,69.45,0,0,0,69.45,16.77Z"/></g></g></svg>